<svg width="31" height="31" viewBox="0 0 31 31" fill="none" xmlns="http://www.w3.org/2000/svg">
<g clip-path="url(#clip0_502_5)">
<path d="M15.5 31C24.0604 31 31 24.0604 31 15.5C31 6.93959 24.0604 0 15.5 0C6.93959 0 0 6.93959 0 15.5C0 24.0604 6.93959 31 15.5 31Z" fill="#6747ED"/>
<path fill-rule="evenodd" clip-rule="evenodd" d="M15.274 17.5021C12.9813 17.5021 11.1406 15.6615 11.1406 13.3688C11.1406 11.0761 12.9813 9.23543 15.274 9.23543C17.5667 9.23543 19.4073 11.0761 19.4073 13.3688C19.4073 15.6615 17.5667 17.5021 15.274 17.5021ZM15.274 7.16876C18.6969 7.16876 21.474 9.94585 21.474 13.3688C21.474 16.7917 18.6969 19.5688 15.274 19.5688C11.8511 19.5688 9.07397 16.7917 9.07397 13.3688C9.07397 9.94585 11.8511 7.16876 15.274 7.16876ZM21.1834 19.8917C21.6031 20.3115 21.6031 20.9573 21.1834 21.3448L17.05 25.4781C16.6302 25.8979 15.9844 25.8979 15.5969 25.4781C15.1771 25.0583 15.1771 24.4125 15.5969 24.025L19.7302 19.8917C20.1177 19.4719 20.7959 19.4719 21.1834 19.8917ZM23.5729 8.2021C23.5729 8.78335 23.1209 9.23543 22.5396 9.23543C21.9584 9.23543 21.5063 8.78335 21.5063 8.2021C21.5063 7.62085 21.9584 7.16876 22.5396 7.16876C23.0886 7.16876 23.5729 7.62085 23.5729 8.2021Z" fill="white"/>
</g>
<defs>
<clipPath id="clip0_502_5">
<rect width="31" height="31" fill="white"/>
</clipPath>
</defs>
</svg>
